<?xml version="1.0" encoding="UTF-8"?>
<svg width="20px" height="20px" viewBox="0 0 20 20" version="1.1" xmlns="http://www.w3.org/2000/svg" xmlns:xlink="http://www.w3.org/1999/xlink">
    <!-- Generator: Sketch 54 (76480) - https://sketchapp.com -->
    <title>icon_权限配置@1x</title>
    <desc>Created with Sketch.</desc>
    <g id="页面1" stroke="none" stroke-width="1" fill="none" fill-rule="evenodd">
        <g id="自定义预设" transform="translate(-359.000000, -539.000000)" fill="#FFFFFF">
            <g id="编组-3" transform="translate(257.000000, 539.000000)">
                <g id="icon_权限配置" transform="translate(102.000000, 1.000000)">
                    <g id="编组-5复制-3" transform="translate(4.000000, 0.000000)">
                        <g id="编组" transform="translate(0.000000, 0.302778)">
                            <path d="M6.0555555,18.772222 C2.71116455,18.772222 0,16.4677322 0,13.6249999 C0,10.7822676 2.71116455,8.4777777 6.0555555,8.4777777 C9.39994645,8.4777777 12.111111,10.7822676 12.111111,13.6249999 C12.111111,16.4677322 9.39994645,18.772222 6.0555555,18.772222 Z M6.0555555,17.7427776 C8.73106826,17.7427776 10.8999999,15.8991857 10.8999999,13.6249999 C10.8999999,11.350814 8.73106826,9.50722213 6.0555555,9.50722213 C3.38004274,9.50722213 1.2111111,11.350814 1.2111111,13.6249999 C1.2111111,15.8991857 3.38004274,17.7427776 6.0555555,17.7427776 Z" id="形状结合"></path>
                            <rect id="矩形复制-7" x="1.81666665" y="1.81666665" width="4.23888885" height="1.2111111"></rect>
                            <rect id="矩形复制-10" x="1.81666665" y="4.8444444" width="4.23888885" height="1.2111111"></rect>
                            <polygon id="矩形复制-11" transform="translate(6.055556, 4.238889) rotate(90.000000) translate(-6.055556, -4.238889) " points="1.81666665 3.6333333 10.2944444 3.6333333 10.2944444 4.8444444 1.81666665 4.8444444"></polygon>
                        </g>
                    </g>
                </g>
            </g>
        </g>
    </g>
</svg>