<?xml version="1.0" encoding="UTF-8"?>
<svg width="13px" height="20px" viewBox="0 0 13 20" version="1.1" xmlns="http://www.w3.org/2000/svg" xmlns:xlink="http://www.w3.org/1999/xlink">
    <!-- Generator: Sketch 52.6 (67491) - http://www.bohemiancoding.com/sketch -->
    <title>icon_权限配置@1x</title>
    <desc>Created with Sketch.</desc>
    <g id="页面-1" stroke="none" stroke-width="1" fill="none" fill-rule="evenodd">
        <g id="icon_权限配置@1x" fill="#00C1DE">
            <path d="M6.0555555,19.075 C2.71116455,19.075 0,16.7705102 0,13.9277779 C0,11.0850456 2.71116455,8.7805557 6.0555555,8.7805557 C9.39994645,8.7805557 12.111111,11.0850456 12.111111,13.9277779 C12.111111,16.7705102 9.39994645,19.075 6.0555555,19.075 Z M6.0555555,18.0455556 C8.73106826,18.0455556 10.8999999,16.2019637 10.8999999,13.9277779 C10.8999999,11.653592 8.73106826,9.81000013 6.0555555,9.81000013 C3.38004274,9.81000013 1.2111111,11.653592 1.2111111,13.9277779 C1.2111111,16.2019637 3.38004274,18.0455556 6.0555555,18.0455556 Z" id="形状结合" fill-rule="nonzero"></path>
            <rect id="矩形复制-7" x="1.81666665" y="2.11944465" width="4.23888885" height="1.2111111"></rect>
            <rect id="矩形复制-10" x="1.81666665" y="5.1472224" width="4.23888885" height="1.2111111"></rect>
            <polygon id="矩形复制-11" transform="translate(6.055556, 4.541667) rotate(90.000000) translate(-6.055556, -4.541667) " points="1.81666727 3.93611097 10.294445 3.93611097 10.294445 5.14722208 1.81666727 5.14722208"></polygon>
        </g>
    </g>
</svg>