<?xml version="1.0" encoding="UTF-8"?>
<svg width="18px" height="17px" viewBox="0 0 18 17" version="1.1" xmlns="http://www.w3.org/2000/svg" xmlns:xlink="http://www.w3.org/1999/xlink">
    <!-- Generator: Sketch 52.6 (67491) - http://www.bohemiancoding.com/sketch -->
    <title>icon_检查信息@1x</title>
    <desc>Created with Sketch.</desc>
    <g id="页面-1" stroke="none" stroke-width="1" fill="none" fill-rule="evenodd">
        <g id="icon_检查信息@1x" fill="#00C1DE">
            <rect id="矩形" x="0.666667" y="0.388889" width="16.6666667" height="1.11111111"></rect>
            <rect id="矩形复制-6" x="0.666667" y="4.27777789" width="5.222222" height="1.11111111"></rect>
            <rect id="矩形复制-7" x="0.666667" y="14.9444446" width="10.8333333" height="1.11111111"></rect>
            <rect id="矩形复制-8" x="0.666667" y="12.0555557" width="6.11111111" height="1.11111111"></rect>
            <rect id="矩形复制-9" x="0.666667" y="8.16666678" width="2.77777778" height="1.11111111"></rect>
            <g id="编组" transform="translate(7.055556, 4.388889)">
                <path d="M3.88888889,7.77777778 C1.74111486,7.77777778 0,6.03666292 0,3.88888889 C0,1.74111486 1.74111486,0 3.88888889,0 C6.03666292,0 7.77777778,1.74111486 7.77777778,3.88888889 C7.77777778,6.03666292 6.03666292,7.77777778 3.88888889,7.77777778 Z M3.88888889,6.66666667 C5.42301319,6.66666667 6.66666667,5.42301319 6.66666667,3.88888889 C6.66666667,2.35476458 5.42301319,1.11111111 3.88888889,1.11111111 C2.35476458,1.11111111 1.11111111,2.35476458 1.11111111,3.88888889 C1.11111111,5.42301319 2.35476458,6.66666667 3.88888889,6.66666667 Z" id="形状结合" fill-rule="nonzero"></path>
                <polygon id="矩形" transform="translate(7.912578, 8.190356) rotate(-45.000000) translate(-7.912578, -8.190356) " points="7.3570225 5.41257807 8.46813362 5.41257807 8.46813362 10.9681336 7.3570225 10.9681336"></polygon>
            </g>
        </g>
    </g>
</svg>